<svg width="43" height="44" viewBox="0 0 43 44" fill="none" xmlns="http://www.w3.org/2000/svg">
<g clip-path="url(#clip0_1081_585)">
<path d="M14.7899 8.47656H7.09644C6.38443 8.47656 5.80737 9.05362 5.80737 9.76562C5.80737 10.4776 6.38443 11.0547 7.09644 11.0547H14.7899C15.5015 11.0547 16.0789 10.4776 16.0789 9.76562C16.0789 9.05362 15.5015 8.47656 14.7899 8.47656Z" fill="#295C7A"/>
<path d="M14.7899 13.6331H7.09644C6.38443 13.6331 5.80737 14.2101 5.80737 14.9221C5.80737 15.6341 6.38443 16.2112 7.09644 16.2112H14.7899C15.5015 16.2112 16.0789 15.6341 16.0789 14.9221C16.0789 14.2101 15.5015 13.6331 14.7899 13.6331Z" fill="#295C7A"/>
<path d="M14.7899 18.7898H7.09644C6.38443 18.7898 5.80737 19.3669 5.80737 20.0789C5.80737 20.7909 6.38443 21.3679 7.09644 21.3679H14.7899C15.5015 21.3679 16.0789 20.7909 16.0789 20.0789C16.0789 19.3669 15.5015 18.7898 14.7899 18.7898Z" fill="#295C7A"/>
<path d="M14.7899 23.9463H7.09644C6.38443 23.9463 5.80737 24.5233 5.80737 25.2354C5.80737 25.9474 6.38443 26.5244 7.09644 26.5244H14.7899C15.5015 26.5244 16.0789 25.9474 16.0789 25.2354C16.0789 24.5233 15.5015 23.9463 14.7899 23.9463Z" fill="#295C7A"/>
<path d="M14.7899 29.1892H7.09644C6.38443 29.1892 5.80737 29.7666 5.80737 30.4783C5.80737 31.1903 6.38443 31.7673 7.09644 31.7673H14.7899C15.5015 31.7673 16.0789 31.1903 16.0789 30.4783C16.0789 29.7666 15.5015 29.1892 14.7899 29.1892Z" fill="#295C7A"/>
<path d="M19.1189 11.0547H26.8123C27.5243 11.0547 28.1014 10.4776 28.1014 9.76562C28.1014 9.05362 27.5243 8.47656 26.8123 8.47656H19.1189C18.4072 8.47656 17.8298 9.05362 17.8298 9.76562C17.8298 10.4776 18.4072 11.0547 19.1189 11.0547Z" fill="#295C7A"/>
<path d="M19.1189 16.2112H26.8123C27.5243 16.2112 28.1014 15.6341 28.1014 14.9221C28.1014 14.2101 27.5243 13.6331 26.8123 13.6331H19.1189C18.4072 13.6331 17.8298 14.2101 17.8298 14.9221C17.8298 15.6341 18.4072 16.2112 19.1189 16.2112Z" fill="#295C7A"/>
<path d="M24.1133 20.0789C24.1133 19.3669 23.5363 18.7898 22.8243 18.7898H19.1189C18.4072 18.7898 17.8298 19.3669 17.8298 20.0789C17.8298 20.7909 18.4072 21.3679 19.1189 21.3679H22.8243C23.5363 21.3679 24.1133 20.7909 24.1133 20.0789Z" fill="#295C7A"/>
<path d="M36.3248 29.7333C35.7696 29.2879 34.9586 29.3768 34.5127 29.9321L31.1927 34.0712L29.1373 32.582C28.5609 32.1641 27.7546 32.293 27.337 32.8694C26.9194 33.4461 27.0483 34.2521 27.6246 34.6697L30.6738 36.8789C30.902 37.0441 31.1666 37.1243 31.4294 37.1243C31.8077 37.1243 32.1817 36.9581 32.4355 36.6416L36.5239 31.5454C36.9694 30.9902 36.8804 30.1788 36.3248 29.7333Z" fill="#295C7A"/>
<path d="M39.5831 25.7762C37.904 24.0675 35.7465 22.9906 33.4087 22.6734V5.1915C33.4087 2.32904 31.0797 0 28.2172 0H5.69183C2.82904 0 0.5 2.32904 0.5 5.1915V35.0524C0.5 37.9152 2.82904 40.2443 5.6915 40.2443H23.8085C25.8472 42.6391 28.7785 44 31.9498 44C37.8529 44 42.6554 39.1942 42.6554 33.287C42.6554 30.4591 41.5644 27.7917 39.5831 25.7762ZM3.07812 35.0524V5.1915C3.07812 3.7507 4.2507 2.57812 5.69183 2.57812H28.2172C29.6583 2.57812 30.8306 3.7507 30.8306 5.1915V22.6324C25.4514 23.1941 21.2442 27.7578 21.2442 33.287C21.2442 34.8195 21.5638 36.3012 22.1767 37.6658H5.69183C4.2507 37.6658 3.07812 36.4936 3.07812 35.0524ZM31.9498 41.4219C29.3753 41.4219 27.0087 40.2399 25.4561 38.1794C24.3873 36.7604 23.822 35.0689 23.822 33.287C23.822 28.8015 27.4683 25.1522 31.9498 25.1522C31.9921 25.1522 32.0347 25.1528 32.077 25.1535L32.0968 25.1538C34.2362 25.1918 36.2419 26.0545 37.7445 27.5833C39.2487 29.1137 40.0772 31.1396 40.0772 33.287C40.0772 37.7726 36.4313 41.4219 31.9498 41.4219Z" fill="#295C7A"/>
</g>
<defs>
<clipPath id="clip0_1081_585">
<rect width="42.1953" height="44" fill="white" transform="translate(0.5)"/>
</clipPath>
</defs>
</svg>
